<mxfile host="app.diagrams.net" modified="2022-11-09T02:18:50.686Z" agent="5.0 (Windows NT 10.0; Win64; x64) AppleWebKit/537.36 (KHTML, like Gecko) Chrome/106.0.0.0 Safari/537.36" etag="2g2aw0C95RIdAAP8ZkW0" version="20.5.3" type="github">
  <diagram id="C5RBs43oDa-KdzZeNtuy" name="Page-1">
    <mxGraphModel dx="2426" dy="1348" grid="1" gridSize="10" guides="1" tooltips="1" connect="1" arrows="1" fold="1" page="1" pageScale="1" pageWidth="827" pageHeight="1169" math="0" shadow="0">
      <root>
        <mxCell id="WIyWlLk6GJQsqaUBKTNV-0" />
        <mxCell id="WIyWlLk6GJQsqaUBKTNV-1" parent="WIyWlLk6GJQsqaUBKTNV-0" />
        <mxCell id="vSNSqq5psAWtDazFdDEe-13" value="&lt;div style=&quot;font-size: 14px; line-height: 19px;&quot;&gt;&lt;div style=&quot;&quot;&gt;&lt;div style=&quot;line-height: 19px;&quot;&gt;&lt;pre style=&quot;line-height: 108%; font-size: 28px;&quot;&gt;&lt;font style=&quot;font-size: 22px;&quot; face=&quot;Courier New&quot;&gt;&lt;b&gt;&lt;font style=&quot;font-size: 22px;&quot;&gt;&lt;span style=&quot;&quot;&gt;bool ml(int x, int y){&lt;br&gt;&lt;/span&gt;&lt;/font&gt;&lt;font style=&quot;font-size: 22px;&quot;&gt;&lt;span style=&quot;&quot;&gt;&amp;nbsp; &amp;nbsp; return x &amp;lt; y;&lt;br&gt;&lt;/span&gt;&lt;/font&gt;&lt;font style=&quot;font-size: 22px;&quot;&gt;&lt;span style=&quot;&quot;&gt;}&lt;br&gt;&lt;/span&gt;&lt;/font&gt;&lt;font style=&quot;font-size: 22px;&quot;&gt;&lt;span style=&quot;&quot;&gt;bool cl(int x, int y){&lt;br&gt;&lt;/span&gt;&lt;/font&gt;&lt;font style=&quot;font-size: 22px;&quot;&gt;&lt;span style=&quot;&quot;&gt;&amp;nbsp; &amp;nbsp; return x &amp;gt; y;&lt;br&gt;&lt;/span&gt;&lt;/font&gt;&lt;font style=&quot;font-size: 22px;&quot;&gt;&lt;span style=&quot;&quot;&gt;}&lt;/span&gt;&lt;/font&gt;&lt;font style=&quot;font-size: 22px;&quot;&gt;&lt;span style=&quot;&quot;&gt;&lt;br&gt;&lt;/span&gt;&lt;/font&gt;&lt;font style=&quot;font-size: 22px;&quot;&gt;&lt;span style=&quot;&quot;&gt;git2 (int a[], int b[], int len)&lt;br&gt;&lt;/span&gt;&lt;/font&gt;&lt;font style=&quot;font-size: 22px;&quot;&gt;&lt;span style=&quot;&quot;&gt;{&lt;br&gt;&lt;/span&gt;&lt;/font&gt;&lt;font style=&quot;font-size: 22px;&quot;&gt;&lt;span style=&quot;&quot;&gt;&amp;nbsp; &amp;nbsp; git( a, len, ml );&lt;br&gt;&lt;/span&gt;&lt;/font&gt;&lt;font style=&quot;font-size: 22px;&quot;&gt;&lt;span style=&quot;&quot;&gt;&amp;nbsp; &amp;nbsp; git( b, len, cl );&lt;br&gt;&lt;/span&gt;&lt;/font&gt;&lt;font style=&quot;font-size: 22px;&quot;&gt;&lt;span style=&quot;&quot;&gt;}&lt;/span&gt;&lt;/font&gt;&lt;/b&gt;&lt;/font&gt;&lt;/pre&gt;&lt;/div&gt;&lt;/div&gt;&lt;/div&gt;" style="whiteSpace=wrap;html=1;aspect=fixed;strokeColor=none;align=left;labelBackgroundColor=default;rounded=0;" vertex="1" parent="WIyWlLk6GJQsqaUBKTNV-1">
          <mxGeometry width="450" height="450" as="geometry" />
        </mxCell>
        <mxCell id="vSNSqq5psAWtDazFdDEe-14" value="" style="whiteSpace=wrap;html=1;aspect=fixed;labelBackgroundColor=#FFFFFF;strokeColor=default;fontColor=#000000;fillColor=default;gradientColor=none;rounded=0;" vertex="1" parent="WIyWlLk6GJQsqaUBKTNV-1">
          <mxGeometry x="516" y="42" width="96" height="96" as="geometry" />
        </mxCell>
        <mxCell id="vSNSqq5psAWtDazFdDEe-16" value="" style="whiteSpace=wrap;html=1;aspect=fixed;labelBackgroundColor=#FFFFFF;strokeColor=default;fontColor=#000000;fillColor=default;gradientColor=none;rounded=0;" vertex="1" parent="WIyWlLk6GJQsqaUBKTNV-1">
          <mxGeometry x="516" y="302" width="96" height="96" as="geometry" />
        </mxCell>
        <mxCell id="vSNSqq5psAWtDazFdDEe-17" value="" style="whiteSpace=wrap;html=1;aspect=fixed;labelBackgroundColor=#FFFFFF;strokeColor=default;fontColor=#000000;fillColor=default;gradientColor=none;rounded=0;" vertex="1" parent="WIyWlLk6GJQsqaUBKTNV-1">
          <mxGeometry x="686" y="172" width="96" height="96" as="geometry" />
        </mxCell>
        <mxCell id="vSNSqq5psAWtDazFdDEe-18" value="" style="whiteSpace=wrap;html=1;aspect=fixed;labelBackgroundColor=#FFFFFF;strokeColor=default;fontColor=#000000;fillColor=default;gradientColor=none;rounded=0;" vertex="1" parent="WIyWlLk6GJQsqaUBKTNV-1">
          <mxGeometry x="516" y="172" width="96" height="96" as="geometry" />
        </mxCell>
        <mxCell id="vSNSqq5psAWtDazFdDEe-19" value="" style="whiteSpace=wrap;html=1;aspect=fixed;labelBackgroundColor=#FFFFFF;strokeColor=default;fontColor=#000000;fillColor=default;gradientColor=none;rounded=0;" vertex="1" parent="WIyWlLk6GJQsqaUBKTNV-1">
          <mxGeometry x="686" y="42" width="96" height="96" as="geometry" />
        </mxCell>
        <mxCell id="vSNSqq5psAWtDazFdDEe-21" value="" style="whiteSpace=wrap;html=1;aspect=fixed;labelBackgroundColor=#FFFFFF;strokeColor=default;fontColor=#000000;fillColor=default;gradientColor=none;rounded=0;" vertex="1" parent="WIyWlLk6GJQsqaUBKTNV-1">
          <mxGeometry x="846" y="42" width="96" height="96" as="geometry" />
        </mxCell>
        <mxCell id="vSNSqq5psAWtDazFdDEe-22" value="" style="whiteSpace=wrap;html=1;aspect=fixed;labelBackgroundColor=#FFFFFF;strokeColor=default;fontColor=#000000;fillColor=default;gradientColor=none;rounded=0;" vertex="1" parent="WIyWlLk6GJQsqaUBKTNV-1">
          <mxGeometry x="846" y="204" width="96" height="96" as="geometry" />
        </mxCell>
        <mxCell id="vSNSqq5psAWtDazFdDEe-35" value="" style="endArrow=none;html=1;strokeWidth=4;fontFamily=Lucida Console;fontSize=22;fontColor=#000000;curved=1;elbow=vertical;edgeStyle=orthogonalEdgeStyle;endSize=3;startSize=3;" edge="1" parent="WIyWlLk6GJQsqaUBKTNV-1">
          <mxGeometry width="50" height="50" relative="1" as="geometry">
            <mxPoint x="739" y="98" as="sourcePoint" />
            <mxPoint x="729" y="58" as="targetPoint" />
            <Array as="points">
              <mxPoint x="729" y="98" />
              <mxPoint x="729" y="88" />
              <mxPoint x="739" y="88" />
              <mxPoint x="739" y="78" />
              <mxPoint x="729" y="78" />
              <mxPoint x="729" y="69" />
              <mxPoint x="739" y="69" />
              <mxPoint x="739" y="58" />
            </Array>
          </mxGeometry>
        </mxCell>
        <mxCell id="vSNSqq5psAWtDazFdDEe-37" value="" style="endArrow=none;html=1;strokeWidth=4;fontFamily=Lucida Console;fontSize=22;fontColor=#000000;curved=1;elbow=vertical;edgeStyle=orthogonalEdgeStyle;endSize=3;startSize=3;" edge="1" parent="WIyWlLk6GJQsqaUBKTNV-1">
          <mxGeometry width="50" height="50" relative="1" as="geometry">
            <mxPoint x="569" y="100" as="sourcePoint" />
            <mxPoint x="559" y="60" as="targetPoint" />
            <Array as="points">
              <mxPoint x="559" y="100" />
              <mxPoint x="559" y="90" />
              <mxPoint x="569" y="90" />
              <mxPoint x="569" y="80" />
              <mxPoint x="559" y="80" />
              <mxPoint x="559" y="71" />
              <mxPoint x="569" y="71" />
              <mxPoint x="569" y="60" />
            </Array>
          </mxGeometry>
        </mxCell>
        <mxCell id="vSNSqq5psAWtDazFdDEe-38" value="" style="endArrow=none;html=1;strokeWidth=4;fontFamily=Lucida Console;fontSize=22;fontColor=#000000;curved=1;elbow=vertical;edgeStyle=orthogonalEdgeStyle;endSize=3;startSize=3;" edge="1" parent="WIyWlLk6GJQsqaUBKTNV-1">
          <mxGeometry width="50" height="50" relative="1" as="geometry">
            <mxPoint x="569.01" y="239.96" as="sourcePoint" />
            <mxPoint x="559.01" y="199.96" as="targetPoint" />
            <Array as="points">
              <mxPoint x="559.01" y="239.96" />
              <mxPoint x="559.01" y="229.96" />
              <mxPoint x="569.01" y="229.96" />
              <mxPoint x="569.01" y="219.96" />
              <mxPoint x="559.01" y="219.96" />
              <mxPoint x="559.01" y="210.96" />
              <mxPoint x="569.01" y="210.96" />
              <mxPoint x="569.01" y="199.96" />
            </Array>
          </mxGeometry>
        </mxCell>
        <mxCell id="vSNSqq5psAWtDazFdDEe-39" value="" style="endArrow=none;html=1;strokeWidth=4;fontFamily=Lucida Console;fontSize=22;fontColor=#000000;curved=1;elbow=vertical;edgeStyle=orthogonalEdgeStyle;endSize=3;startSize=3;" edge="1" parent="WIyWlLk6GJQsqaUBKTNV-1">
          <mxGeometry width="50" height="50" relative="1" as="geometry">
            <mxPoint x="738.97" y="240" as="sourcePoint" />
            <mxPoint x="728.97" y="200" as="targetPoint" />
            <Array as="points">
              <mxPoint x="728.97" y="240" />
              <mxPoint x="728.97" y="230" />
              <mxPoint x="738.97" y="230" />
              <mxPoint x="738.97" y="220" />
              <mxPoint x="728.97" y="220" />
              <mxPoint x="728.97" y="211" />
              <mxPoint x="738.97" y="211" />
              <mxPoint x="738.97" y="200" />
            </Array>
          </mxGeometry>
        </mxCell>
        <mxCell id="vSNSqq5psAWtDazFdDEe-40" value="" style="endArrow=none;html=1;strokeWidth=4;fontFamily=Lucida Console;fontSize=22;fontColor=#000000;curved=1;elbow=vertical;edgeStyle=orthogonalEdgeStyle;endSize=3;startSize=3;" edge="1" parent="WIyWlLk6GJQsqaUBKTNV-1">
          <mxGeometry width="50" height="50" relative="1" as="geometry">
            <mxPoint x="898.97" y="272" as="sourcePoint" />
            <mxPoint x="888.97" y="232" as="targetPoint" />
            <Array as="points">
              <mxPoint x="888.97" y="272" />
              <mxPoint x="888.97" y="262" />
              <mxPoint x="898.97" y="262" />
              <mxPoint x="898.97" y="252" />
              <mxPoint x="888.97" y="252" />
              <mxPoint x="888.97" y="243" />
              <mxPoint x="898.97" y="243" />
              <mxPoint x="898.97" y="232" />
            </Array>
          </mxGeometry>
        </mxCell>
        <mxCell id="vSNSqq5psAWtDazFdDEe-41" value="" style="endArrow=none;html=1;strokeWidth=4;fontFamily=Lucida Console;fontSize=22;fontColor=#000000;curved=1;elbow=vertical;edgeStyle=orthogonalEdgeStyle;endSize=3;startSize=3;" edge="1" parent="WIyWlLk6GJQsqaUBKTNV-1">
          <mxGeometry width="50" height="50" relative="1" as="geometry">
            <mxPoint x="899" y="110" as="sourcePoint" />
            <mxPoint x="889" y="70" as="targetPoint" />
            <Array as="points">
              <mxPoint x="889" y="110" />
              <mxPoint x="889" y="100" />
              <mxPoint x="899" y="100" />
              <mxPoint x="899" y="90" />
              <mxPoint x="889" y="90" />
              <mxPoint x="889" y="81" />
              <mxPoint x="899" y="81" />
              <mxPoint x="899" y="70" />
            </Array>
          </mxGeometry>
        </mxCell>
        <mxCell id="vSNSqq5psAWtDazFdDEe-42" value="" style="endArrow=none;html=1;strokeWidth=4;fontFamily=Lucida Console;fontSize=22;fontColor=#000000;curved=1;elbow=vertical;edgeStyle=orthogonalEdgeStyle;endSize=3;startSize=3;" edge="1" parent="WIyWlLk6GJQsqaUBKTNV-1">
          <mxGeometry width="50" height="50" relative="1" as="geometry">
            <mxPoint x="568.97" y="370" as="sourcePoint" />
            <mxPoint x="558.97" y="330" as="targetPoint" />
            <Array as="points">
              <mxPoint x="558.97" y="370" />
              <mxPoint x="558.97" y="360" />
              <mxPoint x="568.97" y="360" />
              <mxPoint x="568.97" y="350" />
              <mxPoint x="558.97" y="350" />
              <mxPoint x="558.97" y="341" />
              <mxPoint x="568.97" y="341" />
              <mxPoint x="568.97" y="330" />
            </Array>
          </mxGeometry>
        </mxCell>
        <mxCell id="vSNSqq5psAWtDazFdDEe-44" value="&lt;font face=&quot;Lucida Console&quot; style=&quot;font-size: 14px;&quot;&gt;git2() :&lt;/font&gt;" style="text;html=1;resizable=0;autosize=1;align=center;verticalAlign=middle;points=[];fillColor=none;strokeColor=none;rounded=0;labelBackgroundColor=none;fontFamily=Times New Roman;fontSize=23;fontColor=#000000;fontStyle=1" vertex="1" parent="WIyWlLk6GJQsqaUBKTNV-1">
          <mxGeometry x="510" y="4" width="90" height="40" as="geometry" />
        </mxCell>
        <mxCell id="vSNSqq5psAWtDazFdDEe-45" value="&lt;font face=&quot;Courier New&quot; style=&quot;font-size: 13px;&quot;&gt;call 12,R&lt;/font&gt;" style="text;html=1;resizable=0;autosize=1;align=center;verticalAlign=middle;points=[];fillColor=none;strokeColor=none;rounded=0;labelBackgroundColor=none;fontFamily=Times New Roman;fontSize=13;fontColor=#000000;fontStyle=1" vertex="1" parent="WIyWlLk6GJQsqaUBKTNV-1">
          <mxGeometry x="689" y="107" width="90" height="30" as="geometry" />
        </mxCell>
        <mxCell id="vSNSqq5psAWtDazFdDEe-52" value="&lt;font face=&quot;Courier New&quot; style=&quot;font-size: 13px;&quot;&gt;label 21&lt;/font&gt;" style="text;html=1;resizable=0;autosize=1;align=center;verticalAlign=middle;points=[];fillColor=none;strokeColor=none;rounded=0;labelBackgroundColor=none;fontFamily=Times New Roman;fontSize=13;fontColor=#000000;fontStyle=1" vertex="1" parent="WIyWlLk6GJQsqaUBKTNV-1">
          <mxGeometry x="689" y="173" width="90" height="30" as="geometry" />
        </mxCell>
        <mxCell id="vSNSqq5psAWtDazFdDEe-54" value="&lt;font face=&quot;Courier New&quot; style=&quot;font-size: 13px;&quot;&gt;call git&lt;/font&gt;" style="text;html=1;resizable=0;autosize=1;align=center;verticalAlign=middle;points=[];fillColor=none;strokeColor=none;rounded=0;labelBackgroundColor=none;fontFamily=Times New Roman;fontSize=13;fontColor=#000000;fontStyle=1" vertex="1" parent="WIyWlLk6GJQsqaUBKTNV-1">
          <mxGeometry x="519" y="108" width="90" height="30" as="geometry" />
        </mxCell>
        <mxCell id="vSNSqq5psAWtDazFdDEe-55" value="&lt;font face=&quot;Courier New&quot; style=&quot;font-size: 13px;&quot;&gt;ret 21&lt;/font&gt;" style="text;html=1;resizable=0;autosize=1;align=center;verticalAlign=middle;points=[];fillColor=none;strokeColor=none;rounded=0;labelBackgroundColor=none;fontFamily=Times New Roman;fontSize=13;fontColor=#000000;fontStyle=1" vertex="1" parent="WIyWlLk6GJQsqaUBKTNV-1">
          <mxGeometry x="859" y="107" width="70" height="30" as="geometry" />
        </mxCell>
        <mxCell id="vSNSqq5psAWtDazFdDEe-56" value="&lt;font face=&quot;Courier New&quot; style=&quot;font-size: 13px;&quot;&gt;label 12&lt;/font&gt;" style="text;html=1;resizable=0;autosize=1;align=center;verticalAlign=middle;points=[];fillColor=none;strokeColor=none;rounded=0;labelBackgroundColor=none;fontFamily=Times New Roman;fontSize=13;fontColor=#000000;fontStyle=1" vertex="1" parent="WIyWlLk6GJQsqaUBKTNV-1">
          <mxGeometry x="849" y="42" width="90" height="30" as="geometry" />
        </mxCell>
        <mxCell id="vSNSqq5psAWtDazFdDEe-57" value="&lt;font face=&quot;Courier New&quot; style=&quot;font-size: 13px;&quot;&gt;ret 43&lt;/font&gt;" style="text;html=1;resizable=0;autosize=1;align=center;verticalAlign=middle;points=[];fillColor=none;strokeColor=none;rounded=0;labelBackgroundColor=none;fontFamily=Times New Roman;fontSize=13;fontColor=#000000;fontStyle=1" vertex="1" parent="WIyWlLk6GJQsqaUBKTNV-1">
          <mxGeometry x="699" y="238" width="70" height="30" as="geometry" />
        </mxCell>
        <mxCell id="vSNSqq5psAWtDazFdDEe-58" value="&lt;font face=&quot;Courier New&quot; style=&quot;font-size: 13px;&quot;&gt;label 43&lt;/font&gt;" style="text;html=1;resizable=0;autosize=1;align=center;verticalAlign=middle;points=[];fillColor=none;strokeColor=none;rounded=0;labelBackgroundColor=none;fontFamily=Times New Roman;fontSize=13;fontColor=#000000;fontStyle=1" vertex="1" parent="WIyWlLk6GJQsqaUBKTNV-1">
          <mxGeometry x="519" y="174" width="90" height="30" as="geometry" />
        </mxCell>
        <mxCell id="vSNSqq5psAWtDazFdDEe-59" value="&lt;font face=&quot;Courier New&quot; style=&quot;font-size: 13px;&quot;&gt;call git&lt;/font&gt;" style="text;html=1;resizable=0;autosize=1;align=center;verticalAlign=middle;points=[];fillColor=none;strokeColor=none;rounded=0;labelBackgroundColor=none;fontFamily=Times New Roman;fontSize=13;fontColor=#000000;fontStyle=1" vertex="1" parent="WIyWlLk6GJQsqaUBKTNV-1">
          <mxGeometry x="519" y="237" width="90" height="30" as="geometry" />
        </mxCell>
        <mxCell id="vSNSqq5psAWtDazFdDEe-60" value="&lt;font face=&quot;Courier New&quot; style=&quot;font-size: 13px;&quot;&gt;label 12&lt;/font&gt;" style="text;html=1;resizable=0;autosize=1;align=center;verticalAlign=middle;points=[];fillColor=none;strokeColor=none;rounded=0;labelBackgroundColor=none;fontFamily=Times New Roman;fontSize=13;fontColor=#000000;fontStyle=1" vertex="1" parent="WIyWlLk6GJQsqaUBKTNV-1">
          <mxGeometry x="849" y="205" width="90" height="30" as="geometry" />
        </mxCell>
        <mxCell id="vSNSqq5psAWtDazFdDEe-61" value="&lt;font face=&quot;Courier New&quot; style=&quot;font-size: 13px;&quot;&gt;ret 21&lt;/font&gt;" style="text;html=1;resizable=0;autosize=1;align=center;verticalAlign=middle;points=[];fillColor=none;strokeColor=none;rounded=0;labelBackgroundColor=none;fontFamily=Times New Roman;fontSize=13;fontColor=#000000;fontStyle=1" vertex="1" parent="WIyWlLk6GJQsqaUBKTNV-1">
          <mxGeometry x="859" y="267" width="70" height="30" as="geometry" />
        </mxCell>
        <mxCell id="vSNSqq5psAWtDazFdDEe-62" value="&lt;font face=&quot;Courier New&quot; style=&quot;font-size: 13px;&quot;&gt;label 43&lt;/font&gt;" style="text;html=1;resizable=0;autosize=1;align=center;verticalAlign=middle;points=[];fillColor=none;strokeColor=none;rounded=0;labelBackgroundColor=none;fontFamily=Times New Roman;fontSize=13;fontColor=#000000;fontStyle=1" vertex="1" parent="WIyWlLk6GJQsqaUBKTNV-1">
          <mxGeometry x="519" y="302" width="90" height="30" as="geometry" />
        </mxCell>
        <mxCell id="vSNSqq5psAWtDazFdDEe-63" value="&lt;font face=&quot;Courier New&quot; style=&quot;font-size: 13px;&quot;&gt;ret ...&lt;/font&gt;" style="text;html=1;resizable=0;autosize=1;align=center;verticalAlign=middle;points=[];fillColor=none;strokeColor=none;rounded=0;labelBackgroundColor=none;fontFamily=Times New Roman;fontSize=13;fontColor=#000000;fontStyle=1" vertex="1" parent="WIyWlLk6GJQsqaUBKTNV-1">
          <mxGeometry x="524" y="368" width="80" height="30" as="geometry" />
        </mxCell>
        <mxCell id="vSNSqq5psAWtDazFdDEe-64" value="" style="endArrow=classic;html=1;strokeWidth=2;fontFamily=Courier New;fontSize=13;fontColor=default;startSize=3;endSize=3;curved=1;elbow=vertical;dashed=1;dashPattern=1 2;exitX=1.021;exitY=0.839;exitDx=0;exitDy=0;exitPerimeter=0;entryX=0;entryY=0.25;entryDx=0;entryDy=0;" edge="1" parent="WIyWlLk6GJQsqaUBKTNV-1" source="vSNSqq5psAWtDazFdDEe-14" target="vSNSqq5psAWtDazFdDEe-19">
          <mxGeometry width="50" height="50" relative="1" as="geometry">
            <mxPoint x="729" y="390" as="sourcePoint" />
            <mxPoint x="779" y="340" as="targetPoint" />
          </mxGeometry>
        </mxCell>
        <mxCell id="vSNSqq5psAWtDazFdDEe-65" value="" style="endArrow=classic;html=1;strokeWidth=2;fontFamily=Courier New;fontSize=13;fontColor=default;startSize=3;endSize=3;curved=1;elbow=vertical;dashed=1;dashPattern=1 2;exitX=1.038;exitY=0.343;exitDx=0;exitDy=0;exitPerimeter=0;entryX=0.002;entryY=0.366;entryDx=0;entryDy=0;entryPerimeter=0;" edge="1" parent="WIyWlLk6GJQsqaUBKTNV-1" source="vSNSqq5psAWtDazFdDEe-59" target="vSNSqq5psAWtDazFdDEe-19">
          <mxGeometry width="50" height="50" relative="1" as="geometry">
            <mxPoint x="624.0159999999996" y="132.54399999999987" as="sourcePoint" />
            <mxPoint x="680" y="80" as="targetPoint" />
          </mxGeometry>
        </mxCell>
        <mxCell id="vSNSqq5psAWtDazFdDEe-66" value="" style="endArrow=classic;html=1;strokeWidth=2;fontFamily=Courier New;fontSize=13;fontColor=default;startSize=3;endSize=3;curved=1;elbow=vertical;dashed=1;exitX=-0.027;exitY=0.754;exitDx=0;exitDy=0;exitPerimeter=0;entryX=1.021;entryY=0.561;entryDx=0;entryDy=0;entryPerimeter=0;" edge="1" parent="WIyWlLk6GJQsqaUBKTNV-1" source="vSNSqq5psAWtDazFdDEe-57" target="vSNSqq5psAWtDazFdDEe-58">
          <mxGeometry width="50" height="50" relative="1" as="geometry">
            <mxPoint x="634.0159999999996" y="142.54399999999987" as="sourcePoint" />
            <mxPoint x="706" y="86.00000000000023" as="targetPoint" />
          </mxGeometry>
        </mxCell>
        <mxCell id="vSNSqq5psAWtDazFdDEe-67" value="" style="endArrow=classic;html=1;strokeWidth=2;fontFamily=Courier New;fontSize=13;fontColor=default;startSize=3;endSize=3;curved=1;elbow=vertical;dashed=1;entryX=1.003;entryY=0.739;entryDx=0;entryDy=0;entryPerimeter=0;" edge="1" parent="WIyWlLk6GJQsqaUBKTNV-1" target="vSNSqq5psAWtDazFdDEe-62">
          <mxGeometry width="50" height="50" relative="1" as="geometry">
            <mxPoint x="700" y="260" as="sourcePoint" />
            <mxPoint x="620.8899999999999" y="200.82999999999993" as="targetPoint" />
          </mxGeometry>
        </mxCell>
        <mxCell id="vSNSqq5psAWtDazFdDEe-68" value="" style="endArrow=classic;html=1;strokeWidth=2;fontFamily=Courier New;fontSize=13;fontColor=default;startSize=3;endSize=3;curved=1;elbow=vertical;exitX=1.014;exitY=0.52;exitDx=0;exitDy=0;exitPerimeter=0;entryX=0.012;entryY=0.49;entryDx=0;entryDy=0;entryPerimeter=0;" edge="1" parent="WIyWlLk6GJQsqaUBKTNV-1" source="vSNSqq5psAWtDazFdDEe-45" target="vSNSqq5psAWtDazFdDEe-56">
          <mxGeometry width="50" height="50" relative="1" as="geometry">
            <mxPoint x="717.1100000000001" y="280.6200000000001" as="sourcePoint" />
            <mxPoint x="630.8899999999999" y="210.82999999999993" as="targetPoint" />
          </mxGeometry>
        </mxCell>
        <mxCell id="vSNSqq5psAWtDazFdDEe-69" value="" style="endArrow=classic;html=1;strokeWidth=2;fontFamily=Courier New;fontSize=13;fontColor=default;startSize=3;endSize=3;curved=1;elbow=vertical;" edge="1" parent="WIyWlLk6GJQsqaUBKTNV-1">
          <mxGeometry width="50" height="50" relative="1" as="geometry">
            <mxPoint x="780" y="130" as="sourcePoint" />
            <mxPoint x="860" y="220" as="targetPoint" />
          </mxGeometry>
        </mxCell>
        <mxCell id="vSNSqq5psAWtDazFdDEe-70" value="" style="endArrow=classic;html=1;strokeWidth=2;fontFamily=Courier New;fontSize=13;fontColor=default;startSize=3;endSize=3;curved=1;elbow=vertical;dashed=1;exitX=0.007;exitY=0.807;exitDx=0;exitDy=0;exitPerimeter=0;entryX=0.9;entryY=0.567;entryDx=0;entryDy=0;entryPerimeter=0;" edge="1" parent="WIyWlLk6GJQsqaUBKTNV-1" source="vSNSqq5psAWtDazFdDEe-55" target="vSNSqq5psAWtDazFdDEe-52">
          <mxGeometry width="50" height="50" relative="1" as="geometry">
            <mxPoint x="707.1100000000001" y="270.6200000000001" as="sourcePoint" />
            <mxPoint x="620.8899999999999" y="200.82999999999993" as="targetPoint" />
          </mxGeometry>
        </mxCell>
        <mxCell id="vSNSqq5psAWtDazFdDEe-71" value="" style="endArrow=classic;html=1;strokeWidth=2;fontFamily=Courier New;fontSize=13;fontColor=default;startSize=3;endSize=3;curved=1;elbow=vertical;dashed=1;exitX=-0.038;exitY=0.546;exitDx=0;exitDy=0;exitPerimeter=0;entryX=0.892;entryY=1.012;entryDx=0;entryDy=0;entryPerimeter=0;" edge="1" parent="WIyWlLk6GJQsqaUBKTNV-1" source="vSNSqq5psAWtDazFdDEe-61" target="vSNSqq5psAWtDazFdDEe-52">
          <mxGeometry width="50" height="50" relative="1" as="geometry">
            <mxPoint x="717.1100000000001" y="280.6200000000001" as="sourcePoint" />
            <mxPoint x="630.8899999999999" y="210.82999999999993" as="targetPoint" />
          </mxGeometry>
        </mxCell>
        <mxCell id="vSNSqq5psAWtDazFdDEe-73" value="&lt;font face=&quot;Lucida Console&quot; style=&quot;font-size: 12px;&quot;&gt;cl() :&lt;/font&gt;" style="text;html=1;resizable=0;autosize=1;align=center;verticalAlign=middle;points=[];fillColor=none;strokeColor=none;rounded=0;labelBackgroundColor=none;fontFamily=Times New Roman;fontSize=23;fontColor=#000000;fontStyle=1" vertex="1" parent="WIyWlLk6GJQsqaUBKTNV-1">
          <mxGeometry x="849" y="165" width="70" height="40" as="geometry" />
        </mxCell>
        <mxCell id="vSNSqq5psAWtDazFdDEe-74" value="&lt;font face=&quot;Lucida Console&quot; style=&quot;font-size: 14px;&quot;&gt;ml() :&lt;/font&gt;" style="text;html=1;resizable=0;autosize=1;align=center;verticalAlign=middle;points=[];fillColor=none;strokeColor=none;rounded=0;labelBackgroundColor=none;fontFamily=Times New Roman;fontSize=23;fontColor=#000000;fontStyle=1" vertex="1" parent="WIyWlLk6GJQsqaUBKTNV-1">
          <mxGeometry x="844" y="4" width="80" height="40" as="geometry" />
        </mxCell>
        <mxCell id="vSNSqq5psAWtDazFdDEe-75" value="&lt;font face=&quot;Lucida Console&quot; style=&quot;font-size: 14px;&quot;&gt;git() :&lt;/font&gt;" style="text;html=1;resizable=0;autosize=1;align=center;verticalAlign=middle;points=[];fillColor=none;strokeColor=none;rounded=0;labelBackgroundColor=none;fontFamily=Times New Roman;fontSize=23;fontColor=#000000;fontStyle=1" vertex="1" parent="WIyWlLk6GJQsqaUBKTNV-1">
          <mxGeometry x="684" y="5" width="80" height="40" as="geometry" />
        </mxCell>
      </root>
    </mxGraphModel>
  </diagram>
</mxfile>
